<?xml version="1.0" standalone="no"?>
<!DOCTYPE svg PUBLIC "-//W3C//DTD SVG 1.1//EN" "http://www.w3.org/Graphics/SVG/1.1/DTD/svg11.dtd" >
<!--
2013-9-30: Created.
-->
<svg>
<metadata>
Created by iconfont
</metadata>
<defs>

<font id="iconfont" horiz-adv-x="1024" >
  <font-face
    font-family="iconfont"
    font-weight="500"
    font-stretch="normal"
    units-per-em="1024"
    ascent="896"
    descent="-128"
  />
    <missing-glyph />
    
    <glyph glyph-name="play" unicode="&#59411;" d="M512 832C264.576 832 64 631.424 64 384s200.576-448 448-448 448 200.576 448 448S759.424 832 512 832zM414.656 169.72799999999995L414.656 598.2719999999999l311.616-190.464L414.656 169.72799999999995z"  horiz-adv-x="1024" />

    
    <glyph glyph-name="redo" unicode="&#59410;" d="M576 647.616l0 248.384 384-384-384-384 0 253.824c-446.752 10.496-427.584-303.776-313.856-509.824-280.704 303.424-221.088 789.568 313.856 775.616z"  horiz-adv-x="1024" />

    
    <glyph glyph-name="undo" unicode="&#59409;" d="M761.856-128c113.728 206.048 132.896 520.32-313.856 509.824l0-253.824-384 384 384 384 0-248.384c534.976 13.952 594.56-472.224 313.856-775.616z"  horiz-adv-x="1024" />

    
    <glyph glyph-name="sound" unicode="&#59408;" d="M512.128-64.54399999999998c-247.04 0-448 200.96-448 448s200.96 448 448 448 448-200.96 448-448S759.168-64.54399999999998 512.128-64.54399999999998zM512.128 767.456c-211.744 0-384-172.256-384-384 0-211.744 172.256-384 384-384 211.744 0 384 172.256 384 384C896.128 595.2 723.872 767.456 512.128 767.456zM575.136 128c-8.384 0-16.704 3.264-23.008 9.76-12.288 12.672-11.968 32.96 0.736 45.248 55.584 53.824 86.208 125.184 86.208 200.992 0 75.84-30.624 147.232-86.24 200.992-12.704 12.288-13.056 32.544-0.736 45.248 12.288 12.672 32.544 13.056 45.248 0.736 68.192-65.92 105.76-153.664 105.76-247.008 0-93.312-37.536-181.024-105.728-247.008C591.168 131.00800000000004 583.168 128 575.136 128zM480.288 192.70399999999995c-7.936 0-15.84 2.912-22.048 8.8-12.8 12.16-13.344 32.416-1.152 45.216 34.72 36.576 53.856 85.312 53.856 137.248 0 52.672-19.52 101.824-55.008 138.464-12.288 12.672-11.968 32.96 0.736 45.248 12.672 12.256 32.928 11.968 45.248-0.736 47.072-48.64 72.992-113.632 72.992-182.976 0-68.448-25.376-132.8-71.456-181.312C497.184 196.06399999999996 488.736 192.70399999999995 480.288 192.70399999999995zM384.96 274.91200000000003c-9.376 0-18.72 4.128-25.024 12.032-11.008 13.824-8.736 33.984 5.056 44.96 12.864 10.272 19.968 24.128 19.968 39.008 0 14.656-7.264 28.896-19.904 39.008-13.824 11.04-16.064 31.168-5.024 44.96 11.008 13.824 31.168 16.064 44.96 5.024 27.936-22.304 43.968-54.752 43.968-88.992s-16.032-66.688-44.032-88.992C399.008 277.18399999999997 391.968 274.91200000000003 384.96 274.91200000000003z"  horiz-adv-x="1024" />

    
    <glyph glyph-name="close" unicode="&#59396;" d="M878.045 659.558l-60.621 63.59-262.758-275.558-262.758 275.558-60.621-63.59 262.758-275.558-262.758-275.558 60.621-63.59 262.758 275.558 262.758-275.558 60.621 63.59-262.758 275.558z"  horiz-adv-x="1024" />

    
    <glyph glyph-name="music" unicode="&#59166;" d="M1024 384c0 282.763636-229.236364 512-512 512C229.236364 896 0 666.763636 0 384c0-282.763636 229.236364-512 512-512C794.763636-128 1024 101.23636399999998 1024 384zM430.545455 148.20072700000003c-67.490909 0-101.189818 19.595636-101.189818 58.786909 0 16.430545 10.565818 30.487273 31.744 42.077091 21.178182 11.589818 46.498909 17.408 76.008727 17.408 26.624 0 52.363636-10.752 77.265455-32.302545L514.373818 641.163636l22.109091 1.070545c5.538909-14.987636 11.682909-25.367273 18.292364-31.185455 6.656-5.818182 19.269818-11.589818 37.888-17.408 63.581091-19.083636 95.418182-45.335273 95.418182-78.708364 0-21.783273-14.987636-47.290182-44.962909-76.520727l-9.076364 14.894545c11.357091 14.289455 17.035636 26.484364 17.035636 36.631273 0 15.732364-14.522182 28.532364-43.52 38.446545-29.509818 9.681455-52.968727 20.293818-70.376727 31.930182l0.372364-321.024 0-18.478545c0-10.379636-0.465455-17.547636-1.442909-21.410909-3.630545-14.522182-14.708364-26.670545-33.186909-36.445091C484.445091 153.08799999999997 460.288 148.20072700000003 430.545455 148.20072700000003z"  horiz-adv-x="1024" />

    
    <glyph glyph-name="add" unicode="&#59395;" d="M958.919261 420.619012L547.052842 420.619012 547.052842 832.484408 474.370473 832.484408 474.370473 420.619012 62.504054 420.619012 62.504054 347.93562 474.370473 347.93562 474.370473-63.93386899999996 547.052842-63.93386899999996 547.052842 347.93562 958.919261 347.93562Z"  horiz-adv-x="1024" />

    
    <glyph glyph-name="underline" unicode="&#59424;" d="M0-49.23076900000001L945.230769-49.23076900000001 945.230769-128 0-128 0-49.23076900000001ZM0 896L407.076943 896 407.076943 834.065644 319.153861 827.872177 299.076923 809.911217 299.076923 365.841959C299.076923 281.19796199999996 317.076716 220.709337 353.076933 184.37435100000005 389.077071 148.03936499999998 448.153442 129.87210800000003 530.307702 129.87210800000003 606.000364 129.87210800000003 660.807522 149.17482299999995 694.730752 187.78072599999996 728.653982 226.38662899999997 745.61536 289.66226700000004 745.61536 377.60953099999995L745.61536 804.956475 724.153817 826.633531 633.461524 834.065644 633.461524 896 955.384596 896 955.384596 834.065644 868.846119 826.633531 849.461563 804.956475 849.461563 364.60331299999996C849.461563 246.92743900000005 819.923338 161.66533900000002 760.846178 108.81441500000005 701.76894 55.96348999999998 606.462188 29.53846199999998 474.923087 29.53846199999998 406.153531 29.53846199999998 345.807951 38.51886300000001 293.884613 56.47990200000004 241.961275 74.44093999999996 201.230887 100.143419 171.692347 133.58820400000002 149.076834 160.01362700000004 133.038474 190.25793999999996 123.57695 224.32200899999998 114.115348 258.386078 109.384625 307.21047599999997 109.384625 370.796702L109.384625 809.911217 89.307687 827.872177 0 834.065644 0 896Z"  horiz-adv-x="1024" />

    
    <glyph glyph-name="jiacu" unicode="&#59417;" d="M385.692278-22.576915999999983L390.80771-23.307657999999947C421.012953-24.769221000000016 443.423035-25.49996299999998 458.03843-25.49996299999998 545.73119-25.49996299999998 609.551045-9.545019000000025 649.499963 22.365419999999972 689.448881 54.27578100000005 709.423104 105.550927 709.423104 176.192276 709.423104 240.013154 690.66689 287.63443199999995 653.153831 319.057684 615.640852 350.48093500000004 559.372209 366.192325 484.346171 366.192325 462.422961 366.192325 444.153935 365.94869200000005 429.538462 365.461504 414.922988 364.97439499999996 400.307751 364.24357399999997 385.692278 363.26919899999996L385.692278-22.576915999999983ZM386.423099 450.230745C390.320522 449.743557 395.192241 449.378225 401.038494 449.134592 406.884667 448.891038 415.410176 448.76926 426.615414 448.76926 504.5645 448.76926 561.929295 464.48065 598.711532 495.903823 635.49377 527.327074 653.884652 576.409915 653.884652 643.153841 653.884652 701.6156550000001 636.833477 744.9741779999999 602.730732 773.23075 568.628066 801.487321 516.256768 815.61537 445.615419 815.61537 433.922993 815.61537 415.410412 814.641073 390.076889 812.692322L385.692278 812.692322 386.423099 450.230745ZM78.769231 896L528.192276 896C638.295434 896 721.115136 876.391188 776.653824 837.17309 832.192591 797.954914 859.961502 739.37219 859.961502 661.423104 859.961502 602.474102 841.936108 553.1476279999999 805.884613 513.4423429999999 769.833118 473.73698 716.731156 444.628283 646.576916 426.115387 732.320926 424.653824 799.063828 402.731008 846.80767 360.34615099999996 894.551513 317.96129499999995 918.423079 259.50034700000003 918.423079 184.96157500000004 918.423079 90.44826599999999 886.026004 17.981045999999992 821.23075-32.44228899999996 756.435574-82.86562500000002 663.141612-108.07689800000003 541.346186-108.07689800000003L78.769231-108.07689800000003 78.769231-35.00000499999999 167.19234-26.96152600000005 191.307697-3.5769109999999955 191.307697 794.42306 167.19234 815.61537 78.769231 822.923106 78.769231 896Z"  horiz-adv-x="1024" />

    
    <glyph glyph-name="zuoduiqi" unicode="&#59416;" d="M106.2 674.8l548.6 0c21.6 0 39.2 17.6 39.2 39.2L694 753.2c0 21.6-17.6 39.2-39.2 39.2L106.2 792.4c-21.6 0-39.2-17.6-39.2-39.2L67 714C67 692.4 84.4 674.8 106.2 674.8zM106.2 439.8l744.6 0c21.6 0 39.2 17.6 39.2 39.2l0 39.2c0 21.6-17.6 39.2-39.2 39.2L106.2 557.4c-21.6 0-39.2-17.6-39.2-39.2l0-39.2C67 457.4 84.4 439.8 106.2 439.8zM106.2 204.60000000000002l509.4 0c21.6 0 39.2 17.6 39.2 39.2l0 39.2c0 21.6-17.6 39.2-39.2 39.2L106.2 322.20000000000005c-21.6 0-39.2-17.6-39.2-39.2l0-39.2C67 222.20000000000005 84.6 204.60000000000002 106.2 204.60000000000002zM929 87L106.2 87c-21.6 0-39.2-17.6-39.2-39.2l0-39.2c0-21.6 17.6-39.2 39.2-39.2l823 0c21.6 0 39.2 17.6 39.2 39.2l0 39.2C968.2 69.60000000000002 950.8 87 929 87z"  horiz-adv-x="1024" />

    
    <glyph glyph-name="xieti" unicode="&#59415;" d="M897.948 834.255l0-64.322-128.65 0L447.674-1.9329999999999927l128.65 0 0-64.32L126.052-66.25300000000004l0 64.32 128.65 0 321.622 771.866-128.65 0L447.674 834.255 897.948 834.255z"  horiz-adv-x="1024" />

    
    <glyph glyph-name="cut" unicode="&#59398;" d="M829.46 121.774V703.783H249.653V854.855h-58.388v-151.083H38.135v-58.39h153.13v-581.996h579.806v-150.264h58.388V63.398000000000025h156.406v58.377H829.46z m-58.389 0H249.654v523.62h521.417v-523.619z"  horiz-adv-x="1024" />

    
    <glyph glyph-name="chart" unicode="&#59376;" d="M1010.6 501.2c-44.3 189-193.2 337.7-382.3 381.5-2.9 0.7-5.7 1-8.4 1-19.3 0-35.9-15.7-35.9-36V457h391.5c23.2 0 40.3 21.6 35.1 44.2zM950.5 384H512V822.5c0 20-16.2 36.1-35.9 36.1-1 0-1.9 0-2.9-0.1C228.5 838.7 36 633.8 36 384c0-262.9 213.1-476 476-476 249.8 0 454.7 192.5 474.4 437.2 1.7 20.9-14.9 38.8-35.9 38.8z"  horiz-adv-x="1024" />

    
    <glyph glyph-name="youduiqi" unicode="&#59414;" d="M63.9 792.7h896.3v-116.8H63.9zM400.6 558.6h559.5v-116.8H400.6zM63.9 325.5h896.3v-116.8H63.9zM400.6 91.5h559.5v-116.8H400.6z"  horiz-adv-x="1024" />

    
    <glyph glyph-name="juzhong" unicode="&#59413;" d="M743.765 725.76H286.421c-18.027 0-32.64-14.613-32.64-32.64v-32.64c0-18.112 14.656-32.64 32.64-32.64h457.472c18.027 0 32.64 14.613 32.64 32.64v32.64c0 17.984-14.72 32.64-32.768 32.64z m81.728-196.096H204.757c-18.027 0-32.64-14.613-32.64-32.64v-32.64c0-18.112 14.656-32.64 32.64-32.64h620.736c18.027 0 32.64 14.613 32.64 32.64v32.64l0.002 0.322c0 17.85-14.47 32.32-32.32 32.32l-0.339-0.002z m-98.048-195.968H302.677c-18.027 0-32.64-14.613-32.64-32.64v-32.704c0-17.92 14.656-32.64 32.64-32.64h424.768c18.038 0.036 32.659 14.613 32.768 32.63v32.714c0 17.92-14.72 32.64-32.768 32.64zM858.005 137.60000000000002H171.989c-18.027 0-32.64-14.613-32.64-32.64v-32.704c0-17.92 14.656-32.64 32.64-32.64h686.144c18.038 0.036 32.659 14.613 32.768 32.63V104.96000000000004c-0.073 18.042-14.715 32.64-32.768 32.64h-0.135z"  horiz-adv-x="1024" />

    
    <glyph glyph-name="link" unicode="&#59394;" d="M541.7 230.29999999999995L362.9 51.39999999999998c-24.7-24.7-57.6-38.4-92.6-38.4-35 0-67.9 13.6-92.6 38.4S139.2 109 139.2 144c0 35 13.6 67.9 38.4 92.6l178.9 178.9c14.1 14.1 14.1 36.9 0 50.9-14.1 14.1-36.9 14.1-50.9 0L126.7 287.6C88.3 249.20000000000005 67.2 198.20000000000005 67.2 144c0-54.2 21.1-105.2 59.5-143.5 39.6-39.6 91.6-59.4 143.5-59.4 52 0 104 19.8 143.5 59.4l178.9 178.9c14.1 14.1 14.1 36.9 0 50.9s-36.8 14-50.9 0z m357.7 542.9c-79.2 79.2-207.9 79.2-287.1 0L433.4 594.3c-14.1-14.1-14.1-36.9 0-50.9 14.1-14.1 36.9-14.1 50.9 0l178.9 178.9c51.1 51.1 134.2 51.1 185.3 0 24.7-24.7 38.4-57.6 38.4-92.6s-13.6-67.9-38.4-92.6L669.6 358.20000000000005c-14.1-14.1-14.1-36.9 0-50.9 7-7 16.2-10.5 25.5-10.5s18.4 3.5 25.5 10.5l178.9 178.9c79.1 79.1 79.1 207.9-0.1 287zM486.5 307.5l102 102c14.1 14.1 14.1 36.9 0 50.9-14.1 14.1-36.9 14.1-50.9 0l-102-102c-14.1-14.1-14.1-36.9 0-50.9 7-7 16.2-10.5 25.5-10.5s18.3 3.5 25.4 10.5z"  horiz-adv-x="1024" />

    
    <glyph glyph-name="up" unicode="&#59400;" d="M902.903291 521.987592L546.924758 880.760106v0.634995s-1.904987 1.269991-3.174978 2.539983-3.174978 2.539982-4.444969 3.809973l-3.809974 1.904987c-1.777988 0-3.047979 1.904987-4.952965 2.539982a14.985896 14.985896 0 0 1-5.079965 1.269992 11.810918 11.810918 0 0 1-4.444969 1.269991A47.751669 47.751669 0 0 1 512 896a55.625615 55.625615 0 0 1-10.15993-1.269991 16.763884 16.763884 0 0 1-4.31797-1.269991c-1.904987 0-3.809974 0-5.079964-1.904987a27.558809 27.558809 0 0 1-4.44497-2.539983l-4.063972-1.904986a27.558809 27.558809 0 0 1-4.444969-3.809974 11.175923 11.175923 0 0 1-3.174978-2.539982v-0.634996L120.207715 521.352596a51.434644 51.434644 0 0 1 0-71.754503A49.529657 49.529657 0 0 1 156.402464 434.993195a51.94264 51.94264 0 0 1 35.940751 14.604898L462.470343 722.011206V-69.19331199999999a50.799648 50.799648 0 1 1 100.329305 0V722.646201L833.561772 450.233089a49.529657 49.529657 0 0 1 35.940751-14.604899A51.688642 51.688642 0 0 1 905.697272 450.233089a52.577636 52.577636 0 0 1-2.793981 71.754503z"  horiz-adv-x="1024" />

    
    <glyph glyph-name="down" unicode="&#59399;" d="M454.67053 74.90322200000003c0-0.17065-270.822046 287.033826-270.822046 287.033826a56.314603 56.314603 0 0 1-80.888248 1.621178 59.130333 59.130333 0 0 1-1.535853-82.594752l368.3487-391.045191a56.741229 56.741229 0 0 1 82.509426 0l370.311178 393.17832A58.789033 58.789033 0 0 1 938.634817 323.62605299999996c0 15.358528-5.887436 30.631731-17.576982 42.065302a56.485253 56.485253 0 0 1-80.888249-1.706504L569.603516 76.95102599999996C569.432865 76.78037500000005 569.34754 837.539469 569.34754 837.539469A57.935781 57.935781 0 0 1 515.592692 895.901876c-33.276811 1.962479-60.922162-25.768197-60.922162-59.556959v-761.35637z"  horiz-adv-x="1024" />

    
    <glyph glyph-name="clean" unicode="&#58889;" d="M763.2 530.7l188.2 187.8c27.2 27.1 27.2 71.1 0.1 98.3-27.1 27.1-71 27.1-98.2 0.1l-188.4-188c-2.5-0.3-4.3-0.5-6.8-0.8-72.4 42-156.3 41.8-220.8-19.8-1.9-1.8-2-5.1-0.1-7l298.4-298.4c1.9-1.9 5.2-1.8 7 0.1 61.5 64.6 61.7 148.4 19.8 220.8 0.2 2.6 0.5 4.3 0.8 6.9zM320.3 682.3m-59.4 0a59.4 59.4 0 1 1 118.8 0 59.4 59.4 0 1 1-118.8 0ZM695.1 25.899999999999977m-74.4 0a74.4 74.4 0 1 1 148.8 0 74.4 74.4 0 1 1-148.8 0ZM826.9 104.5m-40.5 0a40.5 40.5 0 1 1 81 0 40.5 40.5 0 1 1-81 0ZM384.2 553.4L681.7 256c2.2-2.2 2.7-5.5 1.1-8.2-16.1-25.7-97.2-161.9-118.9-341.9-0.2-1.5-1.8-2.3-3.1-1.6l-101 60.9c-0.9 0.6-1.3 1.7-0.8 2.7 9.5 19.9 100.4 210.3 91.1 201-9.8-9.8-72.7-76.6-119.8-144.9l-27.1-37.3s-106.3 71.5-139.1 116c-0.5 0.7-0.6 1.3 0 1.9 21.6 26.2 134 172.3 134 172.3L207 162.29999999999995c-0.9-0.5-1.9-0.4-2.6 0.4-9.3 10.3-73.1 80.8-91.5 113.9-0.4 0.7-0.4 1.3 0.3 1.9 18.2 14.7 121.1 101.9 121.1 101.9L89.4 329.1c-1-0.3-2.1 0.1-2.6 1L33.2 430.7c-0.7 1.2-0.2 2.7 1.2 3C59.9 438.8 272.7 483 376 554.3c2.6 1.8 6 1.4 8.2-0.9z"  horiz-adv-x="1024" />

    
    <glyph glyph-name="xieti1" unicode="&#59412;" d="M1607.936 640c101.034667 0 163.84-25.941333 190.378667-79.189333 21.333333-46.421333 15.957333-110.592-18.773334-192.512l-191.914666-453.290667h-102.4l50.346666 118.784a597.845333 597.845333 0 0 0-147.797333-94.208c-64-28.672-129.024-43.690667-194.56-43.690667-70.997333 0-119.466667 17.749333-146.773333 53.248-28.16 36.864-29.696 84.650667-5.461334 141.994667 34.133333 80.554667 90.965333 140.629333 173.909334 181.589333 73.472 38.229333 164.096 58.709333 271.189333 60.074667l170.410667 2.730667 15.616 36.864c50.346667 118.784 13.738667 177.493333-109.141334 177.493333-51.882667 0-98.218667-9.557333-140.288-31.402667-46.08-21.845333-83.797333-55.978667-113.749333-101.034666l-104.448 8.192c46.250667 73.728 106.837333 129.706667 179.2 165.205333 65.706667 32.768 139.605333 49.152 224.256 49.152z m13.909333-386.389333l-163.669333-2.730667c-159.573333-2.730667-260.693333-54.613333-304.042667-157.013333-13.909333-32.768-12.544-58.709333 5.461334-80.554667 18.688-20.48 49.493333-31.402667 93.184-31.402667 66.901333 0 134.826667 21.845333 205.312 65.536 68.437333 42.325333 115.2 91.477333 138.24 146.090667l25.514666 60.074667zM777.728 896h129.706667l-10.410667-974.848H775.509333l6.656 273.066667H334.336l-214.186667-273.066667H0L777.728 896zM407.893333 288.42666699999995h376.832l12.714667 487.424h-5.461333L407.893333 288.42666699999995z"  horiz-adv-x="1877" />

    
    <glyph glyph-name="change" unicode="&#59397;" d="M695.808 775.073l34.461 2.796c18.082 1.475 31.547 17.312 30.072 35.33-1.411 18.082-17.505 31.098-35.33 30.072L565.482 830.319c-10.836-0.834-20.518-7.053-25.904-16.479-5.386-9.426-5.707-20.967-0.962-30.713L609.147 639.5c5.707-11.606 17.376-18.338 29.495-18.338 4.873 0 9.81 1.09 14.491 3.334 16.286 8.015 22.955 27.7 15.004 43.986l-29.251 59.528c84.828-31.886 153.843-93.222 195.704-174.366 44.691-86.753 52.963-185.69 23.211-278.663-31.482-98.359-103.489-179.149-197.68-221.661-16.543-7.502-23.852-26.93-16.415-43.473 5.514-12.119 17.44-19.3 29.944-19.3 4.552 0 9.105 0.962 13.529 2.885 111.055 50.205 196.013 145.551 233.202 261.543 66.264 207.422-33.358 428.81-224.573 520.098zM407.813 134.495c-8.015 16.35-27.764 22.891-43.922 15.068-16.286-8.015-23.019-27.635-15.068-43.922l29.502-60.184c-83.706 32.141-151.801 93.058-193.199 173.419-44.691 86.753-52.963 185.69-23.211 278.663 29.687 92.909 93.807 168.762 180.56 213.453 16.094 8.336 22.442 28.084 14.106 44.242-8.336 16.094-28.148 22.378-44.242 14.106-102.27-52.77-177.931-142.153-213.004-251.797s-25.327-226.405 27.443-328.74c46.655-90.585 122.112-160.245 214.869-199.379l-61.688-5.034c-18.082-1.475-31.547-17.312-30.072-35.33 1.346-17.184 15.709-30.2 32.637-30.2 0.898 0 1.795 0.064 2.693 0.128l171.455 13.914c10.836 0.834 20.518 7.053 25.904 16.479 5.386 9.426 5.707 20.903 0.962 30.649l-75.725 154.465z"  horiz-adv-x="1024" />

    
    <glyph glyph-name="scale" unicode="&#59401;" d="M685.42767408 696.14554075c0-9.34494815-3.39816297-17.59762963-10.31585186-24.39395557-6.79632592-6.79632592-15.04900741-10.31585185-24.39395555-10.31585185h-69.41961482v-554.87146666h69.41961482c9.34494815 0 17.59762963-3.39816297 24.39395555-10.31585185 6.79632592-6.79632592 10.31585185-15.04900741 10.31585186-24.39395557 0-9.34494815-3.39816297-17.59762963-10.31585186-24.39395555L536.39395555-91.13599999999997c-6.79632592-6.79632592-15.04900741-10.31585185-24.39395555-10.31585185-9.34494815 0-17.59762963 3.39816297-24.39395555 10.31585185L348.76681482 47.460503700000004c-6.79632592 6.79632592-10.31585185 14.92764445-10.31585185 24.39395555 0 9.34494815 3.39816297 17.59762963 10.31585185 24.39395557 6.79632592 6.79632592 14.92764445 10.31585185 24.39395555 10.31585185h69.41961481V661.43573333h-69.41961481c-9.34494815 0-17.59762963 3.39816297-24.39395555 10.31585185-6.79632592 6.79632592-10.31585185 14.92764445-10.31585185 24.39395557 0 9.34494815 3.39816297 17.59762963 10.31585185 24.39395555l138.71786666 138.71786667c6.79632592 6.79632592 14.92764445 10.31585185 24.39395555 10.31585185 9.34494815 0 17.59762963-3.39816297 24.39395556-10.31585185l138.71786666-138.83922964c6.79632592-6.91768889 10.43721482-14.92764445 10.43721483-24.27259258z"  horiz-adv-x="1024" />

    
    <glyph glyph-name="text" unicode="&#58891;" d="M873.02217336 572.43644152c-0.40653997-6.67887409-1.30673642-11.29600873-2.52635708-13.56101782-1.30673642-2.4392406-5.11079039-4.21059467-11.38312378-5.31406072-13.61909475-3.02001282-22.67913251 2.14885521-27.15107446 15.47756456-15.82602762 49.07520394-34.67206734 81.65649299-56.45100412 97.97617636-30.22916422 22.44682405-83.10842212 33.71379396-158.81200595 33.71379395-30.60666537 0-47.42000448-3.33943704-50.35290153-9.9602342a22.30163135 22.30163135 0 0 1-1.65519875-9.40850007v-551.70402287c0-23.57932896 5.45925343-40.16035887 16.58102991-49.62693734 11.09273839-9.29234622 31.04224417-21.22720339 63.91391936-29.00954355 14.02563546-2.990974 28.16742477-5.80771648 30.02589459-6.94022138 13.35774746 0 14.63544578-30.69378113-10.91850759-30.69378113-0.7259642-0.46461763-301.27529043 0.23230846-301.27528971 0.23230845s-20.99489493 12.74793786-2.14885521 29.70646966l22.27259253 9.96023347s53.14060519 17.82968941 64.20430546 29.29992968c12.60274444 12.92216937 18.81700162 33.80090972 18.81700089 62.54910599V681.38920167c0 10.71523652-6.64983527 16.98757062-19.94950578 18.78796279-1.4228903 0.43557881-12.34139716 0.58077151-32.58128906 0.58077151-70.12817581 0-121.700698-12.13812753-155.00795198-36.55957455-25.08933502-18.06199786-47.3038506-51.22405915-66.87585453-99.66041394-6.30137222-15.10006268-15.01294693-20.00758344-26.04760839-14.89679307-12.5446675 2.93289707-17.10372522 9.84407962-13.85140392 20.47220037 12.92216937 39.89901158 19.39777312 96.11770726 19.39777312 168.83031709 0 8.47926625 11.23793108 17.01660945 33.77187089 15.47756457L825.45697547 752.73699814c20.58835495 3.02001282 31.82628604-0.34846305 33.68475513-9.96023349 10.33773535-49.04616511 14.92583118-105.84563228 13.88044276-170.34032313z"  horiz-adv-x="1024" />

    


  </font>
</defs>
</svg>
